<?xml version="1.0" encoding="UTF-8" standalone="no"?>
<!DOCTYPE svg PUBLIC "-//W3C//DTD SVG 1.1//EN" "http://www.w3.org/Graphics/SVG/1.1/DTD/svg11.dtd">
<svg width="100%" height="100%" viewBox="0 0 732 163" version="1.1" xmlns="http://www.w3.org/2000/svg" xmlns:xlink="http://www.w3.org/1999/xlink" xml:space="preserve" xmlns:serif="http://www.serif.com/" style="fill-rule:evenodd;clip-rule:evenodd;stroke-linejoin:round;stroke-miterlimit:2;">
    <g transform="matrix(1,0,0,1,-4619.06,-1948.66)">
        <g transform="matrix(1,0,0,1,4388.79,1430.13)">
            <g transform="matrix(0.25952,0,0,0.25952,375.994,624.667)">
                <path d="M569.583,122.31C569.583,121.237 568.667,120.846 567.73,120.846L565.975,120.846L565.975,125.839L566.873,125.839L566.873,123.751L567.516,123.751L568.686,125.838L569.778,125.838L568.432,123.652C569.134,123.496 569.582,123.028 569.582,122.307L569.583,122.31ZM566.873,123.03L566.873,121.607L567.691,121.607C568.161,121.607 568.687,121.743 568.687,122.289C568.687,122.893 568.102,123.029 567.595,123.029L566.875,123.029L566.873,123.03ZM567.71,118.935C565.918,118.927 564.291,120.009 563.604,121.664C563.38,122.202 563.265,122.779 563.265,123.362C563.265,125.819 565.253,127.75 567.71,127.75C570.167,127.75 572.157,125.82 572.157,123.362C572.157,123.362 572.157,123.361 572.157,123.361C572.157,120.933 570.159,118.935 567.731,118.935C567.724,118.935 567.717,118.935 567.71,118.935ZM567.71,127.105C565.659,127.097 563.974,125.413 563.966,123.362C564.024,121.348 565.696,119.723 567.71,119.722C569.725,119.722 571.397,121.348 571.455,123.362C571.446,125.413 569.761,127.098 567.71,127.106L567.71,127.105ZM281.673,119.683C275.17,119.683 271.891,113.873 271.891,108.253C271.891,102.635 275.449,97.071 281.361,97.071C284.131,97.071 287.631,98.461 289.006,100.414L295.891,93.554C292.559,90.042 287.246,87.946 281.361,87.946C269.388,87.946 260.697,96.539 260.697,108.378C260.697,120.408 269.291,128.811 281.597,128.811C287.451,128.811 292.862,127.097 296.07,123.648L289.373,116.461C287.826,118.345 284.583,119.684 281.673,119.684L281.673,119.683ZM243.167,127.72L253.85,127.72L253.85,89.034L243.167,89.034L243.167,127.72ZM223.742,110.244C223.742,114.79 220.779,119.684 215.256,119.684C210.998,119.684 208.726,116.647 208.726,110.4L208.726,89.034L198.04,89.034L198.04,113.044C198.04,121.034 202.027,128.81 212.687,128.81C217.714,128.81 221.925,124.852 224.047,121.93L224.207,121.93L224.207,127.72L234.422,127.72L234.422,89.034L223.739,89.034L223.739,110.244L223.742,110.244ZM178.77,93.946L178.533,93.946C177.023,92.276 172.936,87.946 166.297,87.946C155.405,87.946 147.012,96.472 147.012,108.222C147.012,120.152 154.757,128.81 165.785,128.81C170.792,128.81 175.495,126.156 178.222,123.07L178.38,123.07L178.38,146.77L189.063,146.77L189.063,89.034L178.77,89.034L178.77,93.946ZM168.398,119.683C161.792,119.683 158.038,113.917 158.038,108.223C158.038,102.776 161.485,96.915 168.398,96.915C174.756,96.915 178.691,102.865 178.691,108.377C178.691,113.934 174.841,119.683 168.399,119.683L168.398,119.683ZM411.728,87.945C399.572,87.945 390.75,96.472 390.75,108.222C390.75,120.38 399.768,128.914 411.727,128.914C423.685,128.914 432.704,120.298 432.704,108.222C432.704,96.472 423.882,87.945 411.727,87.945L411.728,87.945ZM411.728,119.683C404.761,119.683 401.588,113.743 401.588,108.223C401.588,102.776 404.761,96.915 411.728,96.915C418.694,96.915 421.866,102.775 421.866,108.222C421.866,113.742 418.694,119.682 411.726,119.682L411.728,119.683ZM545.283,103.909C539.785,102.596 537.848,101.889 537.848,99.664C537.848,96.594 541.738,95.92 543.498,95.92C546.813,95.92 550.558,97.9 551.966,99.78L558.266,93.736C555.352,90.076 549.624,87.946 543.576,87.946C535.844,87.946 527.726,91.833 527.726,100.52C527.726,107.98 533.573,110.23 539.294,111.6C545.324,113.005 547.474,114.03 547.474,116.46C547.474,120.04 543.411,120.625 542.014,120.625C538.519,120.625 534.469,118.625 532.284,116.031L525.799,122.606C529.341,126.536 535.405,128.899 541.624,128.899C552.067,128.899 558.264,123.921 558.264,115.706C558.264,107.846 550.679,105.203 545.282,103.91L545.283,103.909ZM525.087,89.033L511.31,89.033L497.518,105.086L497.28,105.086L497.28,67.714L486.598,67.714L486.598,127.719L497.28,127.719L497.28,108.639L497.518,108.639L511.828,127.719L525.885,127.719L509.255,106.577L525.087,89.033ZM366.677,87.943C361.791,87.943 358.192,90.079 354.793,93.263L354.593,93.263L354.593,67.713L343.913,67.713L343.913,127.719L354.127,127.719L354.127,122.251L354.287,122.251C356.695,126.201 361.481,128.809 366.444,128.809C377.471,128.809 385.831,120.149 385.831,108.221C385.831,96.471 377.571,87.944 366.678,87.944L366.677,87.943ZM364.577,119.683C358.133,119.683 354.282,113.933 354.282,108.376C354.282,102.864 358.218,96.914 364.577,96.914C371.489,96.914 374.927,102.774 374.927,108.221C374.927,113.916 371.182,119.681 364.577,119.681L364.577,119.683ZM339.893,89.033L326.115,89.033L312.323,105.086L312.085,105.086L312.085,67.714L301.403,67.714L301.403,127.719L312.085,127.719L312.085,108.639L312.323,108.639L326.633,127.719L340.69,127.719L324.06,106.577L339.893,89.033ZM458.669,87.943C446.513,87.943 437.691,96.471 437.691,108.221C437.691,120.379 446.709,128.913 458.668,128.913C470.625,128.913 479.644,120.297 479.644,108.221C479.644,96.471 470.822,87.944 458.667,87.944L458.669,87.943ZM458.669,119.683C451.702,119.683 448.529,113.741 448.529,108.221C448.529,102.775 451.702,96.914 458.669,96.914C465.634,96.914 468.807,102.774 468.807,108.221C468.807,113.741 465.634,119.681 458.667,119.681L458.669,119.683Z" style="fill:white;fill-rule:nonzero;"/>
            </g>
        </g>
        <g transform="matrix(1,0,0,1,4388.79,1430.13)">
            <g transform="matrix(1,0,0,1,-2950.53,-1430.13)">
                <path d="M3576.06,1960.62C3579.2,1960.62 3581.89,1961.76 3584.14,1964.03C3586.39,1966.31 3587.51,1969.06 3587.51,1972.3C3587.51,1975.49 3586.4,1978.21 3584.17,1980.47C3581.95,1982.72 3579.29,1983.84 3576.19,1983.84C3573.01,1983.84 3570.3,1982.69 3568.05,1980.4C3565.81,1978.1 3564.68,1975.32 3564.68,1972.04C3564.68,1968.89 3565.8,1966.2 3568.02,1963.97C3570.24,1961.74 3572.92,1960.62 3576.06,1960.62ZM3585.05,2061.37L3567.11,2061.37L3567.11,1990.01L3585.05,1990.01L3585.05,2061.37ZM3420.62,1990.01L3438.53,1990.01L3438.53,2061.37L3420.62,2061.37L3420.62,2053.83C3417.13,2057.15 3413.62,2059.55 3410.11,2061.01C3406.59,2062.48 3402.78,2063.21 3398.68,2063.21C3389.46,2063.21 3381.49,2059.64 3374.76,2052.49C3368.04,2045.34 3364.67,2036.45 3364.67,2025.82C3364.67,2014.8 3367.93,2005.77 3374.44,1998.73C3380.94,1991.69 3388.85,1988.17 3398.15,1988.17C3402.43,1988.17 3406.45,1988.98 3410.21,1990.6C3413.96,1992.22 3417.44,1994.64 3420.62,1997.88L3420.62,1990.01ZM3401.8,2004.7C3396.26,2004.7 3391.67,2006.66 3388.01,2010.57C3384.35,2014.49 3382.51,2019.5 3382.51,2025.62C3382.51,2031.79 3384.38,2036.86 3388.1,2040.84C3391.83,2044.82 3396.42,2046.81 3401.87,2046.81C3407.49,2046.81 3412.15,2044.86 3415.86,2040.94C3419.56,2037.03 3421.41,2031.9 3421.41,2025.56C3421.41,2019.35 3419.56,2014.32 3415.86,2010.47C3412.15,2006.62 3407.47,2004.7 3401.8,2004.7ZM3514.04,2004.44L3500.44,2012.64C3497.89,2009.71 3495.36,2007.67 3492.87,2006.54C3490.37,2005.4 3487.45,2004.83 3484.09,2004.83C3477.98,2004.83 3473.04,2006.83 3469.27,2010.83C3465.49,2014.82 3463.61,2019.94 3463.61,2026.18C3463.61,2032.25 3465.43,2037.21 3469.06,2041.05C3472.69,2044.89 3477.46,2046.81 3483.37,2046.81C3490.68,2046.81 3496.37,2044.08 3500.44,2038.61L3513.32,2048.28C3506.34,2058.23 3496.49,2063.21 3483.77,2063.21C3472.32,2063.21 3463.36,2059.49 3456.88,2052.06C3450.4,2044.62 3447.16,2035.92 3447.16,2025.95C3447.16,2019.04 3448.73,2012.68 3451.88,2006.87C3455.03,2001.05 3459.43,1996.48 3465.07,1993.16C3470.72,1989.83 3477.03,1988.17 3484.01,1988.17C3490.47,1988.17 3496.27,1989.58 3501.42,1992.4C3506.56,1995.22 3510.77,1999.24 3514.04,2004.44ZM3531,1963.71L3548.91,1963.71L3548.91,1990.01L3558.39,1990.01L3558.39,2005.42L3548.91,2005.42L3548.91,2061.37L3531,2061.37L3531,2005.42L3521.82,2005.42L3521.82,1990.01L3531,1990.01L3531,1963.71ZM3593.68,1990.01L3611.92,1990.01L3629.95,2032.12L3647.94,1990.01L3666.09,1990.01L3635.72,2061.37L3624.11,2061.37L3593.68,1990.01ZM3721.87,1990.01L3739.78,1990.01L3739.78,2061.37L3721.87,2061.37L3721.87,2053.83C3718.38,2057.15 3714.87,2059.55 3711.35,2061.01C3707.84,2062.48 3704.03,2063.21 3699.92,2063.21C3690.71,2063.21 3682.74,2059.64 3676.01,2052.49C3669.28,2045.34 3665.92,2036.45 3665.92,2025.82C3665.92,2014.8 3669.17,2005.77 3675.68,1998.73C3682.19,1991.69 3690.1,1988.17 3699.4,1988.17C3703.68,1988.17 3707.7,1988.98 3711.45,1990.6C3715.21,1992.22 3718.68,1994.64 3721.87,1997.88L3721.87,1990.01ZM3703.05,2004.7C3697.51,2004.7 3692.91,2006.66 3689.25,2010.57C3685.59,2014.49 3683.76,2019.5 3683.76,2025.62C3683.76,2031.79 3685.62,2036.86 3689.35,2040.84C3693.08,2044.82 3697.66,2046.81 3703.11,2046.81C3708.73,2046.81 3713.4,2044.86 3717.1,2040.94C3720.8,2037.03 3722.66,2031.9 3722.66,2025.56C3722.66,2019.35 3720.8,2014.32 3717.1,2010.47C3713.4,2006.62 3708.71,2004.7 3703.05,2004.7ZM3758.04,1963.71L3775.95,1963.71L3775.95,1990.01L3785.92,1990.01L3785.92,2005.42L3775.95,2005.42L3775.95,2061.37L3758.04,2061.37L3758.04,2005.42L3748.86,2005.42L3748.86,1990.01L3758.04,1990.01L3758.04,1963.71ZM3827.67,1988.17C3834.41,1988.17 3840.74,1989.86 3846.66,1993.22C3852.59,1996.59 3857.21,2001.16 3860.53,2006.93C3863.86,2012.7 3865.52,2018.93 3865.52,2025.62C3865.52,2032.36 3863.85,2038.66 3860.5,2044.52C3857.16,2050.38 3852.6,2054.96 3846.83,2058.26C3841.05,2061.56 3834.69,2063.21 3827.74,2063.21C3817.51,2063.21 3808.77,2059.57 3801.53,2052.29C3794.3,2045.01 3790.68,2036.16 3790.68,2025.76C3790.68,2014.61 3794.77,2005.31 3802.94,1997.88C3810.12,1991.41 3818.36,1988.17 3827.67,1988.17ZM3827.97,2005.03C3822.4,2005.03 3817.77,2006.96 3814.07,2010.83C3810.37,2014.7 3808.52,2019.66 3808.52,2025.69C3808.52,2031.9 3810.35,2036.93 3814.01,2040.78C3817.66,2044.62 3822.29,2046.55 3827.9,2046.55C3833.51,2046.55 3838.17,2044.6 3841.9,2040.71C3845.62,2036.82 3847.48,2031.81 3847.48,2025.69C3847.48,2019.57 3845.65,2014.6 3841.99,2010.77C3838.34,2006.94 3833.66,2005.03 3827.97,2005.03ZM3873.95,1990.01L3889.3,1990.01L3889.3,1999C3890.96,1995.45 3893.17,1992.76 3895.92,1990.93C3898.68,1989.09 3901.69,1988.17 3904.97,1988.17C3907.29,1988.17 3909.72,1988.78 3912.25,1990.01L3906.68,2005.42C3904.58,2004.37 3902.85,2003.85 3901.5,2003.85C3898.74,2003.85 3896.41,2005.55 3894.51,2008.97C3892.61,2012.38 3891.66,2019.07 3891.66,2029.04L3891.72,2032.51L3891.72,2061.37L3873.95,2061.37L3873.95,1990.01Z" style="fill:white;"/>
            </g>
        </g>
        <g transform="matrix(1,0,0,1,4388.79,1430.13)">
            <g transform="matrix(1.67336,0,0,1.67336,-5250.04,-2659.88)">
                <path d="M3462.31,1975.78L3462.31,1982.58L3461.44,1982.58L3461.44,1981.41C3461.08,1981.86 3460.67,1982.19 3460.21,1982.41C3459.75,1982.64 3459.26,1982.75 3458.71,1982.75C3457.75,1982.75 3456.93,1982.4 3456.25,1981.71C3455.57,1981.01 3455.23,1980.16 3455.23,1979.16C3455.23,1978.18 3455.57,1977.34 3456.26,1976.65C3456.95,1975.95 3457.77,1975.6 3458.74,1975.6C3459.3,1975.6 3459.8,1975.72 3460.25,1975.96C3460.71,1976.2 3461.1,1976.55 3461.44,1977.03L3461.44,1975.78L3462.31,1975.78ZM3458.81,1976.45C3458.32,1976.45 3457.87,1976.57 3457.46,1976.81C3457.05,1977.05 3456.72,1977.38 3456.48,1977.81C3456.24,1978.25 3456.11,1978.71 3456.11,1979.19C3456.11,1979.67 3456.24,1980.12 3456.48,1980.56C3456.73,1981 3457.06,1981.34 3457.47,1981.58C3457.89,1981.83 3458.33,1981.95 3458.8,1981.95C3459.28,1981.95 3459.74,1981.83 3460.16,1981.59C3460.59,1981.34 3460.92,1981.02 3461.15,1980.61C3461.39,1980.19 3461.5,1979.73 3461.5,1979.21C3461.5,1978.43 3461.24,1977.77 3460.72,1977.24C3460.2,1976.71 3459.57,1976.45 3458.81,1976.45ZM3470.87,1977.19L3470.18,1977.62C3469.58,1976.83 3468.76,1976.43 3467.73,1976.43C3466.9,1976.43 3466.21,1976.69 3465.66,1977.23C3465.12,1977.76 3464.84,1978.41 3464.84,1979.17C3464.84,1979.66 3464.97,1980.13 3465.22,1980.57C3465.47,1981 3465.82,1981.34 3466.26,1981.59C3466.7,1981.83 3467.19,1981.95 3467.73,1981.95C3468.73,1981.95 3469.55,1981.55 3470.18,1980.75L3470.87,1981.21C3470.55,1981.7 3470.11,1982.08 3469.57,1982.35C3469.02,1982.62 3468.39,1982.75 3467.69,1982.75C3466.62,1982.75 3465.73,1982.41 3465.02,1981.73C3464.31,1981.05 3463.96,1980.21 3463.96,1979.24C3463.96,1978.58 3464.12,1977.97 3464.45,1977.4C3464.78,1976.84 3465.24,1976.39 3465.82,1976.08C3466.4,1975.76 3467.05,1975.6 3467.76,1975.6C3468.21,1975.6 3468.65,1975.67 3469.07,1975.81C3469.48,1975.95 3469.84,1976.13 3470.13,1976.35C3470.42,1976.57 3470.67,1976.85 3470.87,1977.19ZM3473.32,1973.25L3474.19,1973.25L3474.19,1975.78L3475.58,1975.78L3475.58,1976.54L3474.19,1976.54L3474.19,1982.58L3473.32,1982.58L3473.32,1976.54L3472.12,1976.54L3472.12,1975.78L3473.32,1975.78L3473.32,1973.25ZM3477.2,1972.98C3477.39,1972.98 3477.57,1973.05 3477.71,1973.19C3477.85,1973.33 3477.92,1973.5 3477.92,1973.7C3477.92,1973.9 3477.85,1974.07 3477.71,1974.21C3477.57,1974.35 3477.39,1974.42 3477.2,1974.42C3477,1974.42 3476.83,1974.35 3476.69,1974.21C3476.55,1974.07 3476.48,1973.9 3476.48,1973.7C3476.48,1973.5 3476.55,1973.33 3476.69,1973.19C3476.83,1973.05 3477,1972.98 3477.2,1972.98ZM3476.76,1975.78L3477.64,1975.78L3477.64,1982.58L3476.76,1982.58L3476.76,1975.78ZM3478.81,1975.78L3479.74,1975.78L3482.02,1980.74L3484.28,1975.78L3485.22,1975.78L3482.1,1982.58L3481.94,1982.58L3478.81,1975.78ZM3493.32,1975.78L3493.32,1982.58L3492.46,1982.58L3492.46,1981.41C3492.09,1981.86 3491.68,1982.19 3491.22,1982.41C3490.77,1982.64 3490.27,1982.75 3489.73,1982.75C3488.77,1982.75 3487.94,1982.4 3487.26,1981.71C3486.58,1981.01 3486.24,1980.16 3486.24,1979.16C3486.24,1978.18 3486.59,1977.34 3487.27,1976.65C3487.96,1975.95 3488.79,1975.6 3489.75,1975.6C3490.31,1975.6 3490.82,1975.72 3491.27,1975.96C3491.72,1976.2 3492.12,1976.55 3492.46,1977.03L3492.46,1975.78L3493.32,1975.78ZM3489.83,1976.45C3489.34,1976.45 3488.89,1976.57 3488.48,1976.81C3488.07,1977.05 3487.74,1977.38 3487.49,1977.81C3487.25,1978.25 3487.13,1978.71 3487.13,1979.19C3487.13,1979.67 3487.25,1980.12 3487.5,1980.56C3487.74,1981 3488.07,1981.34 3488.49,1981.58C3488.9,1981.83 3489.34,1981.95 3489.82,1981.95C3490.3,1981.95 3490.75,1981.83 3491.18,1981.59C3491.61,1981.34 3491.94,1981.02 3492.17,1980.61C3492.4,1980.19 3492.51,1979.73 3492.51,1979.21C3492.51,1978.43 3492.26,1977.77 3491.74,1977.24C3491.22,1976.71 3490.58,1976.45 3489.83,1976.45ZM3496.05,1973.25L3496.93,1973.25L3496.93,1975.78L3498.32,1975.78L3498.32,1976.54L3496.93,1976.54L3496.93,1982.58L3496.05,1982.58L3496.05,1976.54L3494.86,1976.54L3494.86,1975.78L3496.05,1975.78L3496.05,1973.25ZM3499.93,1972.98C3500.13,1972.98 3500.3,1973.05 3500.44,1973.19C3500.58,1973.33 3500.65,1973.5 3500.65,1973.7C3500.65,1973.9 3500.58,1974.07 3500.44,1974.21C3500.3,1974.35 3500.13,1974.42 3499.93,1974.42C3499.74,1974.42 3499.57,1974.35 3499.43,1974.21C3499.28,1974.07 3499.22,1973.9 3499.22,1973.7C3499.22,1973.5 3499.28,1973.33 3499.43,1973.19C3499.57,1973.05 3499.74,1972.98 3499.93,1972.98ZM3499.5,1975.78L3500.37,1975.78L3500.37,1982.58L3499.5,1982.58L3499.5,1975.78ZM3505.41,1975.6C3506.45,1975.6 3507.32,1975.98 3508.01,1976.74C3508.64,1977.43 3508.95,1978.25 3508.95,1979.2C3508.95,1980.15 3508.62,1980.98 3507.96,1981.69C3507.3,1982.4 3506.45,1982.75 3505.41,1982.75C3504.36,1982.75 3503.51,1982.4 3502.85,1981.69C3502.19,1980.98 3501.86,1980.15 3501.86,1979.2C3501.86,1978.26 3502.17,1977.44 3502.8,1976.75C3503.49,1975.99 3504.36,1975.6 3505.41,1975.6ZM3505.4,1976.46C3504.68,1976.46 3504.05,1976.73 3503.53,1977.27C3503.01,1977.8 3502.74,1978.45 3502.74,1979.22C3502.74,1979.71 3502.87,1980.17 3503.1,1980.59C3503.34,1981.02 3503.66,1981.34 3504.07,1981.58C3504.47,1981.81 3504.92,1981.92 3505.4,1981.92C3505.89,1981.92 3506.34,1981.81 3506.74,1981.58C3507.15,1981.34 3507.47,1981.02 3507.71,1980.59C3507.94,1980.17 3508.06,1979.71 3508.06,1979.22C3508.06,1978.45 3507.8,1977.8 3507.28,1977.27C3506.75,1976.73 3506.13,1976.46 3505.4,1976.46ZM3510.57,1975.78L3511.44,1975.78L3511.44,1977C3511.79,1976.53 3512.18,1976.18 3512.61,1975.95C3513.03,1975.72 3513.49,1975.6 3513.99,1975.6C3514.5,1975.6 3514.95,1975.73 3515.35,1975.99C3515.74,1976.25 3516.03,1976.6 3516.22,1977.04C3516.41,1977.47 3516.5,1978.15 3516.5,1979.08L3516.5,1982.58L3515.62,1982.58L3515.62,1979.34C3515.62,1978.55 3515.59,1978.03 3515.53,1977.77C3515.43,1977.32 3515.23,1976.98 3514.94,1976.75C3514.66,1976.52 3514.28,1976.41 3513.82,1976.41C3513.29,1976.41 3512.82,1976.59 3512.4,1976.93C3511.98,1977.29 3511.7,1977.72 3511.57,1978.24C3511.49,1978.57 3511.44,1979.19 3511.44,1980.08L3511.44,1982.58L3510.57,1982.58L3510.57,1975.78ZM3525.34,1976.52L3524.77,1977.1C3524.31,1976.65 3523.85,1976.42 3523.4,1976.42C3523.12,1976.42 3522.87,1976.52 3522.67,1976.7C3522.47,1976.89 3522.37,1977.11 3522.37,1977.36C3522.37,1977.58 3522.45,1977.79 3522.62,1977.99C3522.78,1978.19 3523.14,1978.43 3523.67,1978.71C3524.32,1979.05 3524.76,1979.37 3525,1979.68C3525.23,1980 3525.34,1980.36 3525.34,1980.75C3525.34,1981.31 3525.15,1981.78 3524.75,1982.17C3524.36,1982.56 3523.87,1982.75 3523.28,1982.75C3522.89,1982.75 3522.52,1982.67 3522.16,1982.5C3521.8,1982.33 3521.51,1982.09 3521.27,1981.79L3521.82,1981.17C3522.27,1981.67 3522.74,1981.92 3523.25,1981.92C3523.6,1981.92 3523.89,1981.81 3524.14,1981.58C3524.39,1981.36 3524.51,1981.1 3524.51,1980.79C3524.51,1980.54 3524.43,1980.32 3524.27,1980.12C3524.1,1979.93 3523.74,1979.69 3523.16,1979.4C3522.55,1979.08 3522.13,1978.77 3521.91,1978.46C3521.69,1978.15 3521.58,1977.8 3521.58,1977.4C3521.58,1976.89 3521.76,1976.46 3522.11,1976.12C3522.46,1975.78 3522.91,1975.6 3523.45,1975.6C3524.07,1975.6 3524.7,1975.91 3525.34,1976.52ZM3533.49,1977.19L3532.79,1977.62C3532.19,1976.83 3531.38,1976.43 3530.34,1976.43C3529.51,1976.43 3528.82,1976.69 3528.28,1977.23C3527.73,1977.76 3527.45,1978.41 3527.45,1979.17C3527.45,1979.66 3527.58,1980.13 3527.83,1980.57C3528.08,1981 3528.43,1981.34 3528.87,1981.59C3529.31,1981.83 3529.8,1981.95 3530.35,1981.95C3531.34,1981.95 3532.16,1981.55 3532.79,1980.75L3533.49,1981.21C3533.16,1981.7 3532.72,1982.08 3532.18,1982.35C3531.63,1982.62 3531,1982.75 3530.3,1982.75C3529.23,1982.75 3528.34,1982.41 3527.63,1981.73C3526.92,1981.05 3526.57,1980.21 3526.57,1979.24C3526.57,1978.58 3526.73,1977.97 3527.06,1977.4C3527.39,1976.84 3527.85,1976.39 3528.43,1976.08C3529.01,1975.76 3529.66,1975.6 3530.37,1975.6C3530.82,1975.6 3531.26,1975.67 3531.68,1975.81C3532.1,1975.95 3532.45,1976.13 3532.74,1976.35C3533.03,1976.57 3533.28,1976.85 3533.49,1977.19ZM3534.84,1975.78L3535.73,1975.78L3535.73,1976.77C3535.99,1976.38 3536.28,1976.09 3536.57,1975.89C3536.87,1975.7 3537.18,1975.6 3537.5,1975.6C3537.74,1975.6 3538,1975.68 3538.27,1975.84L3537.82,1976.57C3537.63,1976.49 3537.48,1976.45 3537.35,1976.45C3537.06,1976.45 3536.78,1976.57 3536.51,1976.81C3536.24,1977.05 3536.03,1977.42 3535.89,1977.93C3535.78,1978.32 3535.73,1979.1 3535.73,1980.28L3535.73,1982.58L3534.84,1982.58L3534.84,1975.78ZM3539.32,1972.98C3539.52,1972.98 3539.69,1973.05 3539.83,1973.19C3539.97,1973.33 3540.04,1973.5 3540.04,1973.7C3540.04,1973.9 3539.97,1974.07 3539.83,1974.21C3539.69,1974.35 3539.52,1974.42 3539.32,1974.42C3539.12,1974.42 3538.96,1974.35 3538.82,1974.21C3538.67,1974.07 3538.6,1973.9 3538.6,1973.7C3538.6,1973.5 3538.67,1973.33 3538.82,1973.19C3538.96,1973.05 3539.12,1972.98 3539.32,1972.98ZM3538.88,1975.78L3539.76,1975.78L3539.76,1982.58L3538.88,1982.58L3538.88,1975.78ZM3541.59,1975.78L3542.47,1975.78L3542.47,1977.03C3542.81,1976.55 3543.21,1976.2 3543.66,1975.96C3544.11,1975.72 3544.61,1975.6 3545.16,1975.6C3546.13,1975.6 3546.95,1975.95 3547.64,1976.65C3548.33,1977.34 3548.67,1978.18 3548.67,1979.16C3548.67,1980.16 3548.33,1981.01 3547.65,1981.71C3546.97,1982.4 3546.15,1982.75 3545.19,1982.75C3544.65,1982.75 3544.15,1982.64 3543.7,1982.41C3543.24,1982.19 3542.83,1981.86 3542.47,1981.41L3542.47,1985.07L3541.59,1985.07L3541.59,1975.78ZM3545.09,1976.45C3544.33,1976.45 3543.7,1976.71 3543.18,1977.24C3542.66,1977.77 3542.4,1978.43 3542.4,1979.21C3542.4,1979.73 3542.52,1980.19 3542.75,1980.61C3542.98,1981.02 3543.31,1981.34 3543.74,1981.59C3544.17,1981.83 3544.62,1981.95 3545.1,1981.95C3545.57,1981.95 3546.01,1981.83 3546.43,1981.58C3546.84,1981.34 3547.17,1981 3547.42,1980.56C3547.66,1980.12 3547.78,1979.67 3547.78,1979.19C3547.78,1978.71 3547.66,1978.25 3547.42,1977.81C3547.18,1977.38 3546.85,1977.05 3546.44,1976.81C3546.03,1976.57 3545.58,1976.45 3545.09,1976.45ZM3551.07,1973.25L3551.95,1973.25L3551.95,1975.78L3553.33,1975.78L3553.33,1976.54L3551.95,1976.54L3551.95,1982.58L3551.07,1982.58L3551.07,1976.54L3549.88,1976.54L3549.88,1975.78L3551.07,1975.78L3551.07,1973.25ZM3561.09,1976C3561.62,1976 3562.07,1976.18 3562.44,1976.56C3562.82,1976.93 3563.01,1977.39 3563.01,1977.92C3563.01,1978.45 3562.82,1978.9 3562.44,1979.28C3562.07,1979.65 3561.62,1979.84 3561.09,1979.84C3560.56,1979.84 3560.11,1979.65 3559.73,1979.28C3559.36,1978.9 3559.17,1978.45 3559.17,1977.92C3559.17,1977.39 3559.36,1976.93 3559.73,1976.56C3560.11,1976.18 3560.56,1976 3561.09,1976ZM3575.35,1975.78L3576.22,1975.78L3576.22,1981.2C3576.22,1982.15 3576.14,1982.85 3575.97,1983.29C3575.74,1983.91 3575.35,1984.4 3574.78,1984.73C3574.21,1985.07 3573.53,1985.24 3572.74,1985.24C3572.15,1985.24 3571.63,1985.16 3571.16,1984.99C3570.7,1984.83 3570.32,1984.61 3570.03,1984.33C3569.74,1984.05 3569.47,1983.64 3569.22,1983.11L3570.17,1983.11C3570.43,1983.56 3570.77,1983.89 3571.18,1984.11C3571.58,1984.33 3572.09,1984.43 3572.7,1984.43C3573.29,1984.43 3573.8,1984.32 3574.21,1984.1C3574.62,1983.88 3574.91,1983.6 3575.09,1983.26C3575.26,1982.93 3575.35,1982.38 3575.35,1981.63L3575.35,1981.28C3575.02,1981.7 3574.62,1982.02 3574.14,1982.24C3573.67,1982.47 3573.16,1982.58 3572.63,1982.58C3572,1982.58 3571.41,1982.42 3570.86,1982.11C3570.31,1981.8 3569.89,1981.38 3569.59,1980.86C3569.29,1980.33 3569.14,1979.76 3569.14,1979.13C3569.14,1978.5 3569.29,1977.91 3569.61,1977.37C3569.92,1976.83 3570.35,1976.39 3570.9,1976.08C3571.46,1975.76 3572.04,1975.6 3572.65,1975.6C3573.16,1975.6 3573.64,1975.71 3574.08,1975.92C3574.52,1976.13 3574.94,1976.48 3575.35,1976.96L3575.35,1975.78ZM3572.77,1976.45C3572.27,1976.45 3571.81,1976.57 3571.39,1976.81C3570.96,1977.05 3570.63,1977.38 3570.39,1977.8C3570.14,1978.22 3570.02,1978.68 3570.02,1979.17C3570.02,1979.92 3570.27,1980.53 3570.77,1981.02C3571.27,1981.51 3571.92,1981.75 3572.72,1981.75C3573.52,1981.75 3574.17,1981.51 3574.66,1981.03C3575.15,1980.55 3575.39,1979.91 3575.39,1979.12C3575.39,1978.61 3575.28,1978.15 3575.06,1977.75C3574.83,1977.35 3574.51,1977.03 3574.1,1976.8C3573.69,1976.56 3573.24,1976.45 3572.77,1976.45ZM3578.4,1972.98C3578.6,1972.98 3578.77,1973.05 3578.91,1973.19C3579.05,1973.33 3579.12,1973.5 3579.12,1973.7C3579.12,1973.9 3579.05,1974.07 3578.91,1974.21C3578.77,1974.35 3578.6,1974.42 3578.4,1974.42C3578.21,1974.42 3578.04,1974.35 3577.9,1974.21C3577.76,1974.07 3577.69,1973.9 3577.69,1973.7C3577.69,1973.5 3577.76,1973.33 3577.9,1973.19C3578.04,1973.05 3578.21,1972.98 3578.4,1972.98ZM3577.97,1975.78L3578.84,1975.78L3578.84,1982.58L3577.97,1982.58L3577.97,1975.78ZM3581.42,1973.25L3582.3,1973.25L3582.3,1975.78L3583.68,1975.78L3583.68,1976.54L3582.3,1976.54L3582.3,1982.58L3581.42,1982.58L3581.42,1976.54L3580.23,1976.54L3580.23,1975.78L3581.42,1975.78L3581.42,1973.25ZM3585,1973.15L3585.87,1973.15L3585.87,1977C3586.23,1976.53 3586.62,1976.18 3587.04,1975.95C3587.47,1975.72 3587.93,1975.6 3588.42,1975.6C3588.93,1975.6 3589.38,1975.73 3589.78,1975.99C3590.17,1976.25 3590.46,1976.6 3590.65,1977.03C3590.83,1977.47 3590.93,1978.15 3590.93,1979.08L3590.93,1982.58L3590.05,1982.58L3590.05,1979.34C3590.05,1978.55 3590.02,1978.03 3589.96,1977.77C3589.85,1977.32 3589.65,1976.98 3589.37,1976.75C3589.08,1976.52 3588.71,1976.41 3588.25,1976.41C3587.72,1976.41 3587.24,1976.59 3586.83,1976.93C3586.41,1977.29 3586.13,1977.72 3586,1978.24C3585.91,1978.57 3585.87,1979.18 3585.87,1980.08L3585.87,1982.58L3585,1982.58L3585,1973.15ZM3592.69,1975.78L3593.57,1975.78L3593.57,1978.95C3593.57,1979.73 3593.61,1980.26 3593.69,1980.55C3593.82,1980.97 3594.05,1981.3 3594.41,1981.54C3594.76,1981.78 3595.18,1981.9 3595.67,1981.9C3596.16,1981.9 3596.57,1981.79 3596.91,1981.55C3597.25,1981.31 3597.49,1981.01 3597.61,1980.62C3597.7,1980.36 3597.75,1979.8 3597.75,1978.95L3597.75,1975.78L3598.64,1975.78L3598.64,1979.12C3598.64,1980.05 3598.53,1980.76 3598.31,1981.23C3598.09,1981.71 3597.76,1982.08 3597.32,1982.35C3596.88,1982.62 3596.33,1982.75 3595.67,1982.75C3595.01,1982.75 3594.45,1982.62 3594.01,1982.35C3593.57,1982.08 3593.24,1981.71 3593.02,1981.23C3592.8,1980.74 3592.69,1980.02 3592.69,1979.05L3592.69,1975.78ZM3600.64,1982.58L3600.64,1973.15L3601.51,1973.15L3601.51,1976.95C3601.88,1976.5 3602.29,1976.16 3602.74,1975.94C3603.2,1975.72 3603.7,1975.6 3604.24,1975.6C3605.2,1975.6 3606.02,1975.95 3606.7,1976.65C3607.38,1977.35 3607.72,1978.19 3607.72,1979.19C3607.72,1980.17 3607.38,1981.01 3606.69,1981.71C3606,1982.4 3605.18,1982.75 3604.21,1982.75C3603.66,1982.75 3603.16,1982.63 3602.71,1982.4C3602.26,1982.16 3601.86,1981.8 3601.51,1981.33L3601.51,1982.58L3600.64,1982.58ZM3604.14,1981.91C3604.62,1981.91 3605.07,1981.79 3605.49,1981.55C3605.9,1981.31 3606.22,1980.97 3606.47,1980.54C3606.71,1980.11 3606.83,1979.65 3606.83,1979.17C3606.83,1978.68 3606.71,1978.22 3606.46,1977.79C3606.22,1977.35 3605.89,1977.01 3605.48,1976.76C3605.06,1976.52 3604.62,1976.4 3604.15,1976.4C3603.67,1976.4 3603.22,1976.52 3602.79,1976.76C3602.36,1977.01 3602.03,1977.34 3601.8,1977.75C3601.57,1978.16 3601.45,1978.62 3601.45,1979.14C3601.45,1979.93 3601.71,1980.59 3602.23,1981.12C3602.74,1981.64 3603.38,1981.91 3604.14,1981.91ZM3610.28,1981.2C3610.49,1981.2 3610.67,1981.28 3610.82,1981.43C3610.97,1981.58 3611.04,1981.76 3611.04,1981.98C3611.04,1982.19 3610.97,1982.37 3610.82,1982.53C3610.67,1982.68 3610.49,1982.75 3610.28,1982.75C3610.06,1982.75 3609.88,1982.68 3609.73,1982.53C3609.58,1982.37 3609.51,1982.19 3609.51,1981.98C3609.51,1981.76 3609.58,1981.58 3609.73,1981.43C3609.88,1981.28 3610.06,1981.2 3610.28,1981.2ZM3619.45,1977.19L3618.76,1977.62C3618.16,1976.83 3617.35,1976.43 3616.31,1976.43C3615.48,1976.43 3614.79,1976.69 3614.25,1977.23C3613.7,1977.76 3613.43,1978.41 3613.43,1979.17C3613.43,1979.66 3613.55,1980.13 3613.8,1980.57C3614.05,1981 3614.4,1981.34 3614.84,1981.59C3615.28,1981.83 3615.77,1981.95 3616.32,1981.95C3617.31,1981.95 3618.13,1981.55 3618.76,1980.75L3619.45,1981.21C3619.13,1981.7 3618.69,1982.08 3618.15,1982.35C3617.6,1982.62 3616.97,1982.75 3616.28,1982.75C3615.2,1982.75 3614.31,1982.41 3613.6,1981.73C3612.89,1981.05 3612.54,1980.21 3612.54,1979.24C3612.54,1978.58 3612.7,1977.97 3613.03,1977.4C3613.37,1976.84 3613.82,1976.39 3614.4,1976.08C3614.98,1975.76 3615.63,1975.6 3616.34,1975.6C3616.79,1975.6 3617.23,1975.67 3617.65,1975.81C3618.07,1975.95 3618.42,1976.13 3618.71,1976.35C3619,1976.57 3619.25,1976.85 3619.45,1977.19ZM3624.36,1975.6C3625.4,1975.6 3626.27,1975.98 3626.96,1976.74C3627.59,1977.43 3627.9,1978.25 3627.9,1979.2C3627.9,1980.15 3627.57,1980.98 3626.91,1981.69C3626.24,1982.4 3625.39,1982.75 3624.36,1982.75C3623.31,1982.75 3622.46,1982.4 3621.8,1981.69C3621.14,1980.98 3620.81,1980.15 3620.81,1979.2C3620.81,1978.26 3621.12,1977.44 3621.74,1976.75C3622.43,1975.99 3623.3,1975.6 3624.36,1975.6ZM3624.35,1976.46C3623.62,1976.46 3623,1976.73 3622.48,1977.27C3621.95,1977.8 3621.69,1978.45 3621.69,1979.22C3621.69,1979.71 3621.81,1980.17 3622.05,1980.59C3622.29,1981.02 3622.61,1981.34 3623.02,1981.58C3623.42,1981.81 3623.87,1981.92 3624.35,1981.92C3624.84,1981.92 3625.28,1981.81 3625.69,1981.58C3626.09,1981.34 3626.41,1981.02 3626.65,1980.59C3626.89,1980.17 3627.01,1979.71 3627.01,1979.22C3627.01,1978.45 3626.75,1977.8 3626.22,1977.27C3625.7,1976.73 3625.08,1976.46 3624.35,1976.46ZM3629.51,1975.78L3630.39,1975.78L3630.39,1976.95C3630.69,1976.52 3631,1976.2 3631.32,1976C3631.77,1975.74 3632.23,1975.6 3632.72,1975.6C3633.05,1975.6 3633.36,1975.67 3633.66,1975.8C3633.95,1975.93 3634.2,1976.1 3634.38,1976.31C3634.57,1976.53 3634.73,1976.84 3634.87,1977.24C3635.16,1976.7 3635.53,1976.3 3635.96,1976.02C3636.4,1975.74 3636.87,1975.6 3637.37,1975.6C3637.84,1975.6 3638.26,1975.72 3638.62,1975.96C3638.97,1976.2 3639.24,1976.53 3639.42,1976.95C3639.59,1977.38 3639.68,1978.02 3639.68,1978.87L3639.68,1982.58L3638.78,1982.58L3638.78,1978.87C3638.78,1978.14 3638.73,1977.64 3638.63,1977.36C3638.53,1977.09 3638.35,1976.87 3638.1,1976.7C3637.85,1976.54 3637.55,1976.45 3637.2,1976.45C3636.77,1976.45 3636.39,1976.58 3636.03,1976.83C3635.68,1977.08 3635.43,1977.41 3635.26,1977.83C3635.1,1978.25 3635.02,1978.94 3635.02,1979.92L3635.02,1982.58L3634.15,1982.58L3634.15,1979.1C3634.15,1978.28 3634.1,1977.72 3633.99,1977.42C3633.89,1977.13 3633.71,1976.9 3633.46,1976.72C3633.21,1976.54 3632.9,1976.45 3632.55,1976.45C3632.15,1976.45 3631.77,1976.58 3631.42,1976.82C3631.07,1977.06 3630.81,1977.39 3630.64,1977.8C3630.47,1978.22 3630.39,1978.85 3630.39,1979.7L3630.39,1982.58L3629.51,1982.58L3629.51,1975.78ZM3645.77,1973.15L3641.95,1983.83L3641,1983.83L3644.81,1973.15L3645.77,1973.15ZM3647,1975.78L3648.71,1975.78L3648.71,1976.48C3649.1,1976.15 3649.45,1975.92 3649.76,1975.8C3650.07,1975.67 3650.39,1975.6 3650.72,1975.6C3651.4,1975.6 3651.97,1975.84 3652.44,1976.31C3652.84,1976.71 3653.03,1977.3 3653.03,1978.09L3653.03,1982.58L3651.35,1982.58L3651.35,1979.6C3651.35,1978.79 3651.31,1978.25 3651.24,1977.98C3651.16,1977.72 3651.04,1977.52 3650.86,1977.38C3650.68,1977.24 3650.45,1977.17 3650.18,1977.17C3649.84,1977.17 3649.54,1977.28 3649.3,1977.51C3649.05,1977.74 3648.88,1978.06 3648.78,1978.47C3648.73,1978.68 3648.71,1979.14 3648.71,1979.85L3648.71,1982.58L3647,1982.58L3647,1975.78ZM3661.49,1979.67L3656.01,1979.67C3656.09,1980.15 3656.3,1980.54 3656.65,1980.83C3656.99,1981.11 3657.43,1981.25 3657.96,1981.25C3658.6,1981.25 3659.15,1981.03 3659.61,1980.58L3661.04,1981.26C3660.69,1981.77 3660.26,1982.14 3659.76,1982.39C3659.26,1982.63 3658.66,1982.75 3657.97,1982.75C3656.91,1982.75 3656.04,1982.42 3655.37,1981.74C3654.7,1981.07 3654.36,1980.23 3654.36,1979.22C3654.36,1978.18 3654.7,1977.32 3655.37,1976.63C3656.03,1975.95 3656.87,1975.6 3657.88,1975.6C3658.95,1975.6 3659.82,1975.95 3660.49,1976.63C3661.16,1977.32 3661.5,1978.22 3661.5,1979.35L3661.49,1979.67ZM3659.79,1978.33C3659.68,1977.95 3659.45,1977.64 3659.12,1977.4C3658.79,1977.17 3658.4,1977.05 3657.97,1977.05C3657.49,1977.05 3657.07,1977.18 3656.71,1977.45C3656.49,1977.61 3656.28,1977.91 3656.09,1978.33L3659.79,1978.33ZM3662.87,1975.78L3664.59,1975.78L3664.59,1979.05C3664.59,1979.69 3664.64,1980.13 3664.72,1980.38C3664.81,1980.63 3664.95,1980.82 3665.15,1980.96C3665.34,1981.1 3665.58,1981.17 3665.87,1981.17C3666.15,1981.17 3666.39,1981.1 3666.59,1980.96C3666.79,1980.83 3666.93,1980.63 3667.03,1980.37C3667.1,1980.17 3667.14,1979.75 3667.14,1979.11L3667.14,1975.78L3668.84,1975.78L3668.84,1978.66C3668.84,1979.85 3668.75,1980.66 3668.56,1981.1C3668.33,1981.63 3667.99,1982.04 3667.55,1982.33C3667.1,1982.61 3666.54,1982.75 3665.85,1982.75C3665.1,1982.75 3664.5,1982.59 3664.04,1982.25C3663.58,1981.92 3663.26,1981.46 3663.07,1980.86C3662.93,1980.45 3662.87,1979.7 3662.87,1978.61L3662.87,1975.78ZM3670.16,1975.78L3671.62,1975.78L3671.62,1976.63C3671.78,1976.3 3671.99,1976.04 3672.25,1975.87C3672.51,1975.69 3672.8,1975.6 3673.11,1975.6C3673.33,1975.6 3673.56,1975.66 3673.81,1975.78L3673.27,1977.25C3673.07,1977.15 3672.91,1977.1 3672.78,1977.1C3672.52,1977.1 3672.3,1977.26 3672.11,1977.59C3671.93,1977.91 3671.84,1978.55 3671.84,1979.5L3671.85,1979.83L3671.85,1982.58L3670.16,1982.58L3670.16,1975.78ZM3679.67,1976.08L3681.37,1976.08L3681.37,1982.88L3679.67,1982.88L3679.67,1982.16C3679.33,1982.48 3679,1982.71 3678.66,1982.85C3678.33,1982.99 3677.97,1983.06 3677.58,1983.06C3676.7,1983.06 3675.94,1982.71 3675.3,1982.03C3674.66,1981.35 3674.34,1980.51 3674.34,1979.49C3674.34,1978.44 3674.65,1977.58 3675.27,1976.91C3675.89,1976.24 3676.64,1975.91 3677.53,1975.91C3677.93,1975.91 3678.32,1975.98 3678.67,1976.14C3679.03,1976.29 3679.36,1976.52 3679.67,1976.83L3679.67,1976.08ZM3677.87,1977.48C3677.35,1977.48 3676.91,1977.67 3676.56,1978.04C3676.21,1978.41 3676.04,1978.89 3676.04,1979.47C3676.04,1980.06 3676.21,1980.55 3676.57,1980.92C3676.92,1981.3 3677.36,1981.49 3677.88,1981.49C3678.41,1981.49 3678.86,1981.31 3679.21,1980.93C3679.57,1980.56 3679.74,1980.07 3679.74,1979.47C3679.74,1978.88 3679.57,1978.4 3679.21,1978.03C3678.86,1977.66 3678.41,1977.48 3677.87,1977.48ZM3682.91,1973.15L3684.62,1973.15L3684.62,1982.58L3682.91,1982.58L3682.91,1973.15ZM3687.86,1975.78L3687.86,1976.53C3688.17,1976.22 3688.5,1975.99 3688.86,1975.84C3689.22,1975.68 3689.6,1975.6 3690.01,1975.6C3690.9,1975.6 3691.65,1975.94 3692.27,1976.61C3692.89,1977.28 3693.2,1978.14 3693.2,1979.19C3693.2,1980.2 3692.88,1981.05 3692.24,1981.73C3691.6,1982.41 3690.84,1982.75 3689.96,1982.75C3689.57,1982.75 3689.2,1982.68 3688.87,1982.54C3688.53,1982.4 3688.19,1982.18 3687.86,1981.86L3687.86,1985.07L3686.17,1985.07L3686.17,1975.78L3687.86,1975.78ZM3689.65,1977.18C3689.12,1977.18 3688.67,1977.36 3688.32,1977.73C3687.96,1978.1 3687.78,1978.57 3687.78,1979.17C3687.78,1979.77 3687.96,1980.26 3688.32,1980.63C3688.67,1981 3689.12,1981.19 3689.65,1981.19C3690.17,1981.19 3690.61,1981 3690.97,1980.62C3691.32,1980.24 3691.5,1979.76 3691.5,1979.17C3691.5,1978.59 3691.33,1978.11 3690.98,1977.74C3690.63,1977.37 3690.19,1977.18 3689.65,1977.18ZM3699.63,1975.78L3701.34,1975.78L3701.34,1982.58L3699.63,1982.58L3699.63,1981.86C3699.3,1982.18 3698.97,1982.4 3698.63,1982.54C3698.3,1982.68 3697.93,1982.75 3697.54,1982.75C3696.66,1982.75 3695.9,1982.41 3695.26,1981.73C3694.62,1981.05 3694.3,1980.2 3694.3,1979.19C3694.3,1978.14 3694.61,1977.28 3695.23,1976.61C3695.85,1975.94 3696.61,1975.6 3697.49,1975.6C3697.9,1975.6 3698.28,1975.68 3698.64,1975.84C3699,1975.99 3699.33,1976.22 3699.63,1976.53L3699.63,1975.78ZM3697.84,1977.18C3697.31,1977.18 3696.87,1977.37 3696.53,1977.74C3696.18,1978.11 3696,1978.59 3696,1979.17C3696,1979.76 3696.18,1980.24 3696.53,1980.62C3696.89,1981 3697.33,1981.19 3697.85,1981.19C3698.38,1981.19 3698.83,1981 3699.18,1980.63C3699.53,1980.26 3699.71,1979.77 3699.71,1979.17C3699.71,1978.57 3699.53,1978.1 3699.18,1977.73C3698.83,1977.36 3698.38,1977.18 3697.84,1977.18ZM3703.73,1972.98C3704.03,1972.98 3704.28,1973.09 3704.5,1973.3C3704.71,1973.52 3704.82,1973.78 3704.82,1974.09C3704.82,1974.4 3704.71,1974.65 3704.5,1974.87C3704.29,1975.08 3704.04,1975.19 3703.74,1975.19C3703.44,1975.19 3703.18,1975.08 3702.97,1974.86C3702.75,1974.64 3702.64,1974.38 3702.64,1974.07C3702.64,1973.77 3702.75,1973.51 3702.96,1973.3C3703.17,1973.09 3703.43,1972.98 3703.73,1972.98ZM3702.88,1975.78L3704.58,1975.78L3704.58,1982.58L3702.88,1982.58L3702.88,1975.78ZM3706.13,1975.78L3707.84,1975.78L3707.84,1976.48C3708.22,1976.15 3708.58,1975.92 3708.89,1975.8C3709.2,1975.67 3709.53,1975.6 3709.85,1975.6C3710.53,1975.6 3711.1,1975.84 3711.57,1976.31C3711.97,1976.71 3712.16,1977.3 3712.16,1978.09L3712.16,1982.58L3710.47,1982.58L3710.47,1979.6C3710.47,1978.79 3710.44,1978.25 3710.37,1977.98C3710.29,1977.72 3710.17,1977.52 3709.99,1977.38C3709.81,1977.24 3709.58,1977.17 3709.32,1977.17C3708.97,1977.17 3708.67,1977.28 3708.43,1977.51C3708.18,1977.74 3708.01,1978.06 3707.91,1978.47C3707.86,1978.68 3707.84,1979.14 3707.84,1979.85L3707.84,1982.58L3706.13,1982.58L3706.13,1975.78Z" style="fill:white;"/>
            </g>
        </g>
        <g transform="matrix(1,0,0,1,4388.79,1430.13)">
            <g transform="matrix(1.77097,0,0,1.77097,-5432.3,-3239.46)">
                <path d="M3259.8,2206.45C3254.26,2208.95 3248.1,2210.35 3241.62,2210.35C3217.22,2210.35 3197.44,2190.57 3197.44,2166.17C3197.44,2141.77 3217.22,2121.99 3241.62,2121.99C3266.02,2121.99 3285.8,2141.77 3285.8,2166.17C3285.8,2172.65 3284.4,2178.81 3281.89,2184.35C3280.08,2183.7 3278.12,2183.35 3276.09,2183.35C3266.55,2183.35 3258.8,2191.1 3258.8,2200.64C3258.8,2202.68 3259.16,2204.63 3259.8,2206.45Z" style="fill:rgb(44,160,28);fill-rule:nonzero;"/>
            </g>
        </g>
        <g transform="matrix(1,0,0,1,4388.79,1430.13)">
            <g transform="matrix(1.6978,0,0,1.6978,-5332.79,-2708.11)">
                <path d="M3289.42,1946.56C3289.42,1936.66 3297.45,1928.64 3307.35,1928.64L3320.15,1928.64L3320.15,1976.77C3316.5,1976.77 3313.5,1973.77 3313.5,1970.12L3313.5,1935.3L3307.35,1935.3C3301.13,1935.3 3296.08,1940.35 3296.08,1946.56C3296.08,1952.77 3301.13,1957.83 3307.35,1957.83L3309.91,1957.83L3309.91,1964.48L3307.35,1964.48C3297.45,1964.48 3289.42,1956.46 3289.42,1946.56ZM3338.08,1928.64C3347.97,1928.64 3356,1936.67 3356,1946.57C3356,1956.46 3347.97,1964.49 3338.08,1964.49L3325.27,1964.49L3325.27,1916.36C3328.92,1916.36 3331.92,1919.36 3331.92,1923.01L3331.92,1957.83L3338.08,1957.83C3344.29,1957.83 3349.34,1952.78 3349.34,1946.57C3349.34,1940.35 3344.29,1935.3 3338.08,1935.3L3335.52,1935.3L3335.52,1928.64L3338.08,1928.64Z" style="fill:white;"/>
            </g>
        </g>
        <g transform="matrix(1,0,0,1,4388.79,1430.13)">
            <g transform="matrix(1.88038,0,0,1.88038,-5814.38,-3481.68)">
                <circle cx="3288.67" cy="2201.42" r="12.58" style="fill:rgb(43,160,29);"/>
            </g>
        </g>
        <g transform="matrix(1,0,0,1,4388.79,1430.13)">
            <g transform="matrix(0.208801,0,0,0.208801,-415.193,464.55)">
                <path d="M3772.53,935.819L3772.53,953.92C3772.53,957.672 3771.04,961.271 3768.39,963.924C3765.73,966.577 3762.14,968.068 3758.38,968.068L3758.36,968.068C3754.61,968.068 3751.01,966.577 3748.36,963.924C3745.7,961.271 3744.21,957.672 3744.21,953.92L3744.21,935.819C3735.78,930.925 3730.05,921.88 3730.05,911.426C3730.05,895.797 3742.73,883.102 3758.37,883.102C3774.01,883.102 3786.7,895.797 3786.7,911.426C3786.7,921.88 3780.97,930.925 3772.53,935.819Z" style="fill:white;"/>
            </g>
        </g>
    </g>
</svg>
